HIERARCHY
ROOT hip
{
  OFFSET 0 0 0
  CHANNELS 6 Xposition Yposition Zposition Zrotation Yrotation Xrotation
  JOINT abdomen
  {
    OFFSET 0 20.6881 -0.73152
    CHANNELS 3 Zrotation Xrotation Yrotation
    JOINT chest
    {
      OFFSET 0 11.7043 -0.48768
      CHANNELS 3 Zrotation Xrotation Yrotation
      JOINT neck
      {
        OFFSET 0 22.1894 -2.19456
        CHANNELS 3 Zrotation Xrotation Yrotation
        JOINT head
        {
          OFFSET -0.24384 7.07133 1.2192
          CHANNELS 3 Zrotation Xrotation Yrotation
          JOINT leftEye
          {
            OFFSET 4.14528 8.04674 8.04672
            CHANNELS 3 Zrotation Xrotation Yrotation
            End Site
            {
              OFFSET 1 0 0
            }
          }
          JOINT rightEye
          {
            OFFSET -3.6576 8.04674 8.04672
            CHANNELS 3 Zrotation Xrotation Yrotation
            End Site
            {
              OFFSET 1 0 0
            }
          }
        }
      }
      JOINT rCollar
      {
        OFFSET -2.68224 19.2634 -4.8768
        CHANNELS 3 Zrotation Xrotation Yrotation
        JOINT rShldr
        {
          OFFSET -8.77824 -1.95073 1.46304
          CHANNELS 3 Zrotation Xrotation Yrotation
          JOINT rForeArm
          {
            OFFSET -28.1742 -1.7115 0.48768
            CHANNELS 3 Zrotation Xrotation Yrotation
            JOINT rHand
            {
              OFFSET -22.5879 0.773209 7.07136
              CHANNELS 3 Zrotation Xrotation Yrotation
              JOINT rThumb1
              {
                OFFSET -1.2192 -0.487915 3.41376
                CHANNELS 3 Zrotation Xrotation Yrotation
                JOINT rThumb2
                {
                  OFFSET -3.37035 -0.52449 3.41376
                  CHANNELS 3 Zrotation Xrotation Yrotation
                  End Site
                  {
                    OFFSET -1.78271 -1.18214 1.43049
                  }
                }
              }
              JOINT rIndex1
              {
                OFFSET -7.75947 0.938293 5.60832
                CHANNELS 3 Zrotation Xrotation Yrotation
                JOINT rIndex2
                {
                  OFFSET -2.54057 -0.884171 1.56538
                  CHANNELS 3 Zrotation Xrotation Yrotation
                  End Site
                  {
                    OFFSET -1.62519 -0.234802 1.16502
                  }
                }
              }
              JOINT rMid1
              {
                OFFSET -8.24714 1.18213 3.41376
                CHANNELS 3 Zrotation Xrotation Yrotation
                JOINT rMid2
                {
                  OFFSET -3.10165 -0.590103 1.0647
                  CHANNELS 3 Zrotation Xrotation Yrotation
                  End Site
                  {
                    OFFSET -2.48547 -0.328903 0.83742
                  }
                }
              }
              JOINT rRing1
              {
                OFFSET -8.82822 0.546677 1.51678
                CHANNELS 3 Zrotation Xrotation Yrotation
                JOINT rRing2
                {
                  OFFSET -2.60934 -0.819778 -0.0198488
                  CHANNELS 3 Zrotation Xrotation Yrotation
                  End Site
                  {
                    OFFSET -2.33842 -0.294052 0.168128
                  }
                }
              }
              JOINT rPinky1
              {
                OFFSET -8.27202 -0.0477905 -0.4584
                CHANNELS 3 Zrotation Xrotation Yrotation
                JOINT rPinky2
                {
                  OFFSET -1.82734 -0.647385 -0.700984
                  CHANNELS 3 Zrotation Xrotation Yrotation
                  End Site
                  {
                    OFFSET -1.69225 -0.51767 -0.607171
                  }
                }
              }
            }
          }
        }
      }
      JOINT lCollar
      {
        OFFSET 2.68224 19.2634 -4.8768
        CHANNELS 3 Zrotation Xrotation Yrotation
        JOINT lShldr
        {
          OFFSET 8.77824 -1.95073 1.46304
          CHANNELS 3 Zrotation Xrotation Yrotation
          JOINT lForeArm
          {
            OFFSET 28.1742 -1.7115 0.48768
            CHANNELS 3 Zrotation Xrotation Yrotation
            JOINT lHand
            {
              OFFSET 22.5879 0.773209 7.07136
              CHANNELS 3 Zrotation Xrotation Yrotation
              JOINT lThumb1
              {
                OFFSET 1.2192 -0.487915 3.41376
                CHANNELS 3 Zrotation Xrotation Yrotation
                JOINT lThumb2
                {
                  OFFSET 3.37035 -0.52449 3.41376
                  CHANNELS 3 Zrotation Xrotation Yrotation
                  End Site
                  {
                    OFFSET 1.78271 -1.18214 1.43049
                  }
                }
              }
              JOINT lIndex1
              {
                OFFSET 7.75947 0.938293 5.60832
                CHANNELS 3 Zrotation Xrotation Yrotation
                JOINT lIndex2
                {
                  OFFSET 2.54057 -0.884171 1.56538
                  CHANNELS 3 Zrotation Xrotation Yrotation
                  End Site
                  {
                    OFFSET 1.62519 -0.234802 1.16502
                  }
                }
              }
              JOINT lMid1
              {
                OFFSET 8.24714 1.18213 3.41376
                CHANNELS 3 Zrotation Xrotation Yrotation
                JOINT lMid2
                {
                  OFFSET 3.10165 -0.590103 1.0647
                  CHANNELS 3 Zrotation Xrotation Yrotation
                  End Site
                  {
                    OFFSET 2.48547 -0.328903 0.83742
                  }
                }
              }
              JOINT lRing1
              {
                OFFSET 8.82822 0.546677 1.51678
                CHANNELS 3 Zrotation Xrotation Yrotation
                JOINT lRing2
                {
                  OFFSET 2.60934 -0.819778 -0.0198488
                  CHANNELS 3 Zrotation Xrotation Yrotation
                  End Site
                  {
                    OFFSET 2.33842 -0.294052 0.168128
                  }
                }
              }
              JOINT lPinky1
              {
                OFFSET 8.27202 -0.0477905 -0.4584
                CHANNELS 3 Zrotation Xrotation Yrotation
                JOINT lPinky2
                {
                  OFFSET 1.82734 -0.647385 -0.700984
                  CHANNELS 3 Zrotation Xrotation Yrotation
                  End Site
                  {
                    OFFSET 1.69225 -0.51767 -0.607171
                  }
                }
              }
            }
          }
        }
      }
    }
  }
  JOINT rButtock
  {
    OFFSET -8.77824 4.35084 1.2192
    CHANNELS 3 Zrotation Xrotation Yrotation
    JOINT rThigh
    {
      OFFSET 0 -1.70687 -2.19456
      CHANNELS 3 Zrotation Xrotation Yrotation
      JOINT rShin
      {
        OFFSET 0 -36.8199 0.73152
        CHANNELS 3 Zrotation Xrotation Yrotation
        JOINT rFoot
        {
          OFFSET 0.73152 -45.1104 -5.12064
          CHANNELS 3 Zrotation Xrotation Yrotation
          End Site
          {
            OFFSET -1.1221 -3.69964 12.103
          }
        }
      }
    }
  }
  JOINT lButtock
  {
    OFFSET 8.77824 4.35084 1.2192
    CHANNELS 3 Zrotation Xrotation Yrotation
    JOINT lThigh
    {
      OFFSET 0 -1.70687 -2.19456
      CHANNELS 3 Zrotation Xrotation Yrotation
      JOINT lShin
      {
        OFFSET 0 -36.8199 0.73152
        CHANNELS 3 Zrotation Xrotation Yrotation
        JOINT lFoot
        {
          OFFSET -0.73152 -45.1104 -5.12064
          CHANNELS 3 Zrotation Xrotation Yrotation
          End Site
          {
            OFFSET 1.1221 -3.69964 12.103
          }
        }
      }
    }
  }
}
MOTION
Frames:	7
Frame Time:	0.00833333
13.2084 81.6701 -53.1528 -21.88 -65.1022 369.67 6.07791 18.8603 -7.65536 1.21476 4.95964 -2.25618 6.21315 17.8061 2.51705 5.50255 -0.14077 3.19926 -0.0 0.0 0.0 -0.0 0.0 0.0 5.48467e-13 1.71042e-13 -8.68012e-13 56.8447 -50.3563 17.4538 -14.2751 -7.18267 26.1013 -0.584853 -21.2106 -3.1225 -7.22105e-09 1.41404e-08 -1.8125e-09 -1.24482e-08 2.49641e-08 -3.25608e-09 -7.22105e-09 1.41404e-08 -1.8125e-09 7.73091 5.47488 0.417314 -7.22105e-09 1.41404e-08 -1.81249e-09 2.90554 0.965183 0.102902 -7.22105e-09 1.41404e-08 -1.81249e-09 10.2786 0.731801 0.0259123 -7.22105e-09 1.41404e-08 -1.81248e-09 2.22167 -0.733487 -0.20892 5.48342e-13 1.71041e-13 -8.6809e-13 -53.379 -22.6681 -40.2323 15.3033 -8.06207 -28.1964 3.20895 -44.2739 7.86771 -4.1053e-09 -1.65209e-08 -4.20279e-09 -6.93808e-09 -2.86619e-08 -7.38034e-09 -4.1053e-09 -1.65209e-08 -4.20278e-09 -7.73091 5.47488 -0.417314 -4.1053e-09 -1.65209e-08 -4.20278e-09 -2.90554 0.965183 -0.102902 -4.1053e-09 -1.65209e-08 -4.20278e-09 -10.2786 0.731801 -0.0259123 -4.10529e-09 -1.65209e-08 -4.20279e-09 -2.22167 -0.733487 0.20892 -2.03217e-16 0.0 -3.88251e-19 13.7309 4.78137 -18.9675 0.0675892 25.2501 1.35972 -15.301 -22.1892 -32.5306 2.03217e-16 0.0 3.88251e-19 76.7424 -33.5954 91.9368 174.812 74.0411 -174.683 -1.66868 47.1847 3.19461
12.91 81.7484 -53.2503 -22.2372 -64.6524 370.033 6.17613 18.0488 -7.81015 1.36286 4.78273 -2.29619 6.12508 17.9906 2.43593 5.76228 -0.86429 3.15227 -0.0 0.0 0.0 -0.0 0.0 0.0 4.48808e-13 -6.19984e-13 -9.87053e-13 56.0774 -49.445 16.716 -15.0471 -7.8301 27.6959 -0.851748 -25.3046 -3.80685 -8.0925e-09 7.20726e-09 -2.15199e-11 -1.39775e-08 1.31781e-08 -2.06801e-10 -8.0925e-09 7.20727e-09 -2.15268e-11 7.73091 5.47488 0.417314 -8.0925e-09 7.20726e-09 -2.15163e-11 2.90554 0.965183 0.102902 -8.0925e-09 7.20726e-09 -2.15148e-11 10.2786 0.731801 0.0259123 -8.0925e-09 7.20726e-09 -2.1505e-11 2.22167 -0.733487 -0.20892 4.48691e-13 -6.19985e-13 -9.87189e-13 -53.5473 -22.025 -39.6702 16.2941 -8.96611 -30.2987 4.28521 -49.1962 9.35488 -3.55677e-09 -1.64683e-08 -4.42777e-09 -5.96504e-09 -2.84513e-08 -7.75542e-09 -3.55677e-09 -1.64683e-08 -4.42777e-09 -7.73091 5.47488 -0.417314 -3.55677e-09 -1.64683e-08 -4.42777e-09 -2.90554 0.965183 -0.102902 -3.55677e-09 -1.64683e-08 -4.42777e-09 -10.2786 0.731801 -0.0259123 -3.55676e-09 -1.64683e-08 -4.42778e-09 -2.22167 -0.733487 0.20892 -2.03217e-16 0.0 -3.88251e-19 14.3533 5.29141 -19.0355 0.0813164 24.4569 1.36165 -15.3184 -22.2169 -32.5986 2.03217e-16 0.0 3.88251e-19 77.2697 -33.3469 92.8295 174.95 73.4432 -174.804 -2.30914 47.2466 4.15377
12.6138 81.6174 -53.3098 -22.5596 -64.2388 370.375 6.26018 17.2411 -7.95638 1.5028 4.60581 -2.33417 6.03016 18.1761 2.34962 6.01011 -1.61213 3.10017 -0.0 0.0 0.0 -0.0 0.0 0.0 3.13193e-13 -1.52001e-12 -1.06737e-12 55.381 -48.5213 16.0118 -15.8384 -8.53257 29.3549 -1.18227 -29.339 -4.53052 -8.59871e-09 -1.79013e-10 1.81056e-09 -1.48791e-08 5.72982e-10 2.92268e-09 -8.59871e-09 -1.79011e-10 1.81055e-09 7.73091 5.47488 0.417314 -8.59871e-09 -1.79012e-10 1.81056e-09 2.90554 0.965183 0.102902 -8.59871e-09 -1.79015e-10 1.81056e-09 10.2786 0.731801 0.0259123 -8.59871e-09 -1.79017e-10 1.81057e-09 2.22167 -0.733487 -0.20892 3.13092e-13 -1.52001e-12 -1.06758e-12 -53.7514 -21.392 -39.0763 17.2718 -9.92237 -32.4292 5.65816 -53.9384 11.115 -2.78837e-09 -1.57995e-08 -4.50669e-09 -4.61917e-09 -2.71716e-08 -7.87208e-09 -2.78837e-09 -1.57995e-08 -4.50669e-09 -7.73091 5.47488 -0.417314 -2.78837e-09 -1.57995e-08 -4.50669e-09 -2.90554 0.965183 -0.102902 -2.78837e-09 -1.57995e-08 -4.50669e-09 -10.2786 0.731801 -0.0259123 -2.78836e-09 -1.57995e-08 -4.50671e-09 -2.22167 -0.733487 0.20892 -2.03217e-16 0.0 -3.88251e-19 14.9409 5.79682 -19.0807 0.0933937 23.6471 1.36037 -15.3017 -22.2141 -32.6422 2.03217e-16 0.0 3.88251e-19 77.695 -33.1698 93.5338 175.051 72.9796 -174.898 -2.7966 47.2349 4.88701
12.3423 81.7122 -53.3807 -22.8599 -63.8623 370.709 6.34505 16.4381 -8.09479 1.63662 4.42862 -2.36905 5.93001 18.3636 2.25794 6.24352 -2.39032 3.04268 -0.0 0.0 0.0 -0.0 0.0 0.0 1.62231e-13 -2.27569e-12 -1.05107e-12 54.7444 -47.5864 15.3379 -16.6507 -9.30606 31.0585 -1.58334 -33.2836 -5.29366 -8.33892e-09 -5.58693e-09 3.06351e-09 -1.44535e-08 -8.7209e-09 5.07795e-09 -8.33892e-09 -5.58693e-09 3.0635e-09 7.73091 5.47488 0.417314 -8.33892e-09 -5.58693e-09 3.06351e-09 2.90554 0.965183 0.102902 -8.33892e-09 -5.58693e-09 3.06351e-09 10.2786 0.731801 0.0259123 -8.33892e-09 -5.58693e-09 3.06352e-09 2.22167 -0.733487 -0.20892 1.62146e-13 -2.27569e-12 -1.05132e-12 -53.9545 -20.7455 -38.4477 18.2353 -10.9419 -34.5501 7.41705 -58.4316 13.2222 -2.14416e-09 -1.44963e-08 -4.32059e-09 -3.50308e-09 -2.48431e-08 -7.53307e-09 -2.14416e-09 -1.44963e-08 -4.32059e-09 -7.73091 5.47488 -0.417314 -2.14416e-09 -1.44962e-08 -4.32059e-09 -2.90554 0.965183 -0.102902 -2.14416e-09 -1.44963e-08 -4.3206e-09 -10.2786 0.731801 -0.0259123 -2.14415e-09 -1.44962e-08 -4.32061e-09 -2.22167 -0.733487 0.20892 -2.03217e-16 0.0 -3.88251e-19 15.5198 6.35447 -19.1109 0.103674 22.7072 1.35325 -15.2137 -22.1247 -32.6687 2.03217e-16 0.0 3.88251e-19 78.0203 -33.0383 94.0102 175.116 72.6876 -174.97 -3.07739 47.1973 5.30876
12.0845 81.8131 -53.4377 -23.1364 -63.523 371.033 6.42304 15.6395 -8.22601 1.76313 4.25254 -2.40129 5.82315 18.5533 2.16063 6.46414 -3.19973 2.98009 -0.0 0.0 0.0 -0.0 0.0 0.0 -4.98037e-14 -3.01245e-12 -8.76209e-13 54.1708 -46.646 14.6905 -17.4694 -10.1326 32.8248 -2.05685 -37.1523 -6.10987 -6.79494e-09 -8.54578e-09 3.5621e-09 -1.18078e-08 -1.39491e-08 5.97273e-09 -6.79494e-09 -8.54577e-09 3.56209e-09 7.73091 5.47488 0.417314 -6.79494e-09 -8.54577e-09 3.5621e-09 2.90554 0.965183 0.102902 -6.79493e-09 -8.54578e-09 3.5621e-09 10.2786 0.731801 0.0259123 -6.79494e-09 -8.54578e-09 3.56211e-09 2.22167 -0.733487 -0.20892 -4.98707e-14 -3.01245e-12 -8.76486e-13 -54.164 -20.0843 -37.7848 19.1694 -12.0057 -36.6776 9.6593 -62.6706 15.7855 -1.65741e-09 -1.20859e-08 -3.69114e-09 -2.68288e-09 -2.06738e-08 -6.43162e-09 -1.6574e-09 -1.20859e-08 -3.69113e-09 -7.73091 5.47488 -0.417314 -1.6574e-09 -1.20859e-08 -3.69114e-09 -2.90554 0.965183 -0.102902 -1.6574e-09 -1.20859e-08 -3.69114e-09 -10.2786 0.731801 -0.0259123 -1.6574e-09 -1.20859e-08 -3.69116e-09 -2.22167 -0.733487 0.20892 -2.03217e-16 0.0 -3.88251e-19 16.0781 6.91347 -19.0903 0.10992 21.7222 1.34217 -15.1082 -21.9908 -32.7042 2.03217e-16 0.0 3.88251e-19 78.2306 -32.9549 94.2525 175.148 72.5769 -175.022 -3.13849 47.136 5.40075
11.8354 81.9291 -53.4806 -23.3953 -63.2221 371.352 6.49075 14.8449 -8.34979 1.88184 4.07721 -2.43122 5.70946 18.7448 2.05784 6.672 -4.03743 2.91244 -0.0 0.0 0.0 -0.0 0.0 0.0 -3.16829e-13 -3.80108e-12 -5.89161e-13 53.6612 -45.6982 14.0694 -18.2822 -10.9946 34.6633 -2.61425 -40.952 -7.00033 -4.31761e-09 -1.02931e-08 3.6404e-09 -7.55048e-09 -1.71989e-08 6.17107e-09 -4.31761e-09 -1.02931e-08 3.6404e-09 7.73091 5.47488 0.417314 -4.31761e-09 -1.02931e-08 3.6404e-09 2.90554 0.965183 0.102902 -4.31761e-09 -1.02931e-08 3.6404e-09 10.2786 0.731801 0.0259123 -4.31761e-09 -1.02931e-08 3.64041e-09 2.22167 -0.733487 -0.20892 -3.16874e-13 -3.80107e-12 -5.89459e-13 -54.3964 -19.4165 -37.0891 20.0632 -13.0942 -38.8338 12.5714 -66.6701 19.0097 -1.1641e-09 -8.73402e-09 -2.73064e-09 -1.86871e-09 -1.49186e-08 -4.75766e-09 -1.16409e-09 -8.73399e-09 -2.73063e-09 -7.73091 5.47488 -0.417314 -1.1641e-09 -8.73401e-09 -2.73064e-09 -2.90554 0.965183 -0.102902 -1.1641e-09 -8.73401e-09 -2.73065e-09 -10.2786 0.731801 -0.0259123 -1.16409e-09 -8.73401e-09 -2.73066e-09 -2.22167 -0.733487 0.20892 -2.03217e-16 0.0 -3.88251e-19 16.6063 7.46615 -19.0273 0.112555 20.7141 1.3279 -14.9836 -21.8235 -32.7368 2.03217e-16 0.0 3.88251e-19 78.3357 -32.9419 94.2896 175.152 72.628 -175.055 -3.00759 47.0329 5.20689
11.5991 82.056 -53.5091 -23.6442 -62.96 371.673 6.56958 14.0553 -8.46557 1.99593 3.89981 -2.45756 5.59263 18.9377 1.9499 6.86212 -4.90368 2.83912 -0.0 0.0 0.0 -0.0 0.0 0.0 -5.40522e-13 -4.30628e-12 -2.94515e-13 53.2013 -44.7336 13.4771 -19.0918 -11.9074 36.5438 -3.27317 -44.6426 -7.97432 -1.80973e-09 -1.09599e-08 3.44213e-09 -3.23452e-09 -1.86023e-08 5.89408e-09 -1.80973e-09 -1.09599e-08 3.44213e-09 7.73091 5.47488 0.417314 -1.80974e-09 -1.09599e-08 3.44213e-09 2.90554 0.965183 0.102902 -1.80973e-09 -1.09599e-08 3.44213e-09 10.2786 0.731801 0.0259123 -1.80974e-09 -1.09599e-08 3.44214e-09 2.22167 -0.733487 -0.20892 -5.40546e-13 -4.30627e-12 -2.94822e-13 -54.6302 -18.7324 -36.3605 20.9224 -14.2184 -40.9921 16.4682 -70.3831 23.2018 -7.1241e-10 -5.38001e-09 -1.75614e-09 -1.12922e-09 -9.16856e-09 -3.05894e-09 -7.1239e-10 -5.37997e-09 -1.75611e-09 -7.73091 5.47488 -0.417314 -7.12408e-10 -5.38e-09 -1.75613e-09 -2.90554 0.965183 -0.102902 -7.12412e-10 -5.38e-09 -1.75614e-09 -10.2786 0.731801 -0.0259123 -7.12405e-10 -5.38e-09 -1.75615e-09 -2.22167 -0.733487 0.20892 -2.03217e-16 0.0 -3.88251e-19 17.1365 8.13351 -18.998 0.114818 19.4753 1.30674 -14.7203 -21.5199 -32.7183 2.03217e-16 0.0 3.88251e-19 78.3714 -33.0003 94.1292 175.127 72.8334 -175.075 -2.69664 46.9037 4.73823
